<svg width="178" height="22" viewBox="0 0 178 22" fill="none" xmlns="http://www.w3.org/2000/svg">
<rect x="1" y="1" width="176" height="20" rx="3" fill="#1D1D1D"/>
<rect x="1" y="1" width="176" height="20" rx="3" stroke="#6A6853" stroke-width="2"/>
<path opacity="0.65" d="M23.5713 13.2197C23.5163 13.6471 23.4062 14.0407 23.2412 14.4004C23.0762 14.7559 22.8625 15.0605 22.6001 15.3145C22.3335 15.5726 22.0182 15.7736 21.6543 15.9175C21.2946 16.0571 20.8926 16.127 20.4482 16.127C20.0674 16.127 19.7204 16.0741 19.4072 15.9683C19.0983 15.8582 18.8232 15.708 18.582 15.5176C18.3366 15.3271 18.125 15.1029 17.9473 14.8447C17.7738 14.5866 17.6299 14.3052 17.5156 14.0005C17.3971 13.6958 17.3083 13.3763 17.249 13.042C17.194 12.7077 17.1644 12.3691 17.1602 12.0264V10.7378C17.1644 10.395 17.194 10.0565 17.249 9.72217C17.3083 9.38786 17.3971 9.06836 17.5156 8.76367C17.6299 8.45898 17.7738 8.17757 17.9473 7.91943C18.125 7.65706 18.3366 7.43066 18.582 7.24023C18.8232 7.0498 19.0983 6.90169 19.4072 6.7959C19.7161 6.68587 20.0632 6.63086 20.4482 6.63086C20.9095 6.63086 21.3221 6.7028 21.686 6.84668C22.05 6.98633 22.3631 7.18522 22.6255 7.44336C22.8879 7.70573 23.0973 8.01888 23.2539 8.38281C23.4147 8.74674 23.5205 9.14876 23.5713 9.58887H22.397C22.3589 9.30957 22.2933 9.04932 22.2002 8.80811C22.1071 8.56689 21.9823 8.35531 21.8257 8.17334C21.6691 7.99137 21.4766 7.84961 21.248 7.74805C21.0238 7.64225 20.7572 7.58936 20.4482 7.58936C20.1689 7.58936 19.9214 7.6359 19.7056 7.729C19.494 7.81787 19.312 7.94059 19.1597 8.09717C19.0031 8.25374 18.8719 8.43571 18.7661 8.64307C18.6646 8.85042 18.582 9.07048 18.5186 9.30322C18.4551 9.53597 18.4085 9.77507 18.3789 10.0205C18.3535 10.2617 18.3408 10.4966 18.3408 10.7251V12.0264C18.3408 12.2549 18.3535 12.4919 18.3789 12.7373C18.4085 12.9785 18.4551 13.2155 18.5186 13.4482C18.582 13.6852 18.6646 13.9074 18.7661 14.1147C18.8677 14.3221 18.9967 14.5041 19.1533 14.6606C19.3099 14.8215 19.494 14.9484 19.7056 15.0415C19.9172 15.1304 20.1647 15.1748 20.4482 15.1748C20.7572 15.1748 21.0238 15.1261 21.248 15.0288C21.4766 14.9315 21.6691 14.7939 21.8257 14.6162C21.9823 14.4427 22.1071 14.2375 22.2002 14.0005C22.2933 13.7593 22.3589 13.499 22.397 13.2197H23.5713ZM28.5674 10.1538C28.6605 10.0142 28.7642 9.88721 28.8784 9.77295C28.9927 9.65446 29.1133 9.55078 29.2402 9.46191C29.4434 9.3138 29.6655 9.20166 29.9067 9.12549C30.1522 9.04932 30.4124 9.00911 30.6875 9.00488C31.0472 9.00488 31.373 9.05778 31.665 9.16357C31.9613 9.26514 32.2131 9.42594 32.4204 9.646C32.6278 9.86605 32.7865 10.1453 32.8965 10.4839C33.0107 10.8182 33.0679 11.216 33.0679 11.6772V16H31.8936V11.6646C31.8936 11.3937 31.8618 11.1567 31.7983 10.9536C31.7349 10.7463 31.6418 10.5749 31.519 10.4395C31.3879 10.2913 31.2228 10.1813 31.0239 10.1094C30.825 10.0332 30.5965 9.99723 30.3384 10.0015C30.1268 10.0015 29.9258 10.0311 29.7354 10.0903C29.5449 10.1496 29.3693 10.2342 29.2085 10.3442C29.0815 10.4289 28.9631 10.5283 28.853 10.6426C28.7472 10.7526 28.652 10.8753 28.5674 11.0107V16H27.3931V6.25H28.5674V10.1538ZM36.8706 12.5024C36.8706 12.0073 36.9425 11.5482 37.0864 11.125C37.2303 10.6976 37.4377 10.3273 37.7085 10.0142C37.9751 9.70101 38.3009 9.45557 38.686 9.27783C39.0711 9.09587 39.5049 9.00488 39.9873 9.00488C40.474 9.00488 40.9098 9.09587 41.2949 9.27783C41.6842 9.45557 42.0143 9.70101 42.2852 10.0142C42.5518 10.3273 42.757 10.6976 42.9009 11.125C43.0448 11.5482 43.1167 12.0073 43.1167 12.5024V12.6421C43.1167 13.1372 43.0448 13.5964 42.9009 14.0195C42.757 14.4427 42.5518 14.8109 42.2852 15.124C42.0143 15.4372 41.6864 15.6826 41.3013 15.8604C40.9162 16.0381 40.4824 16.127 40 16.127C39.5133 16.127 39.0754 16.0381 38.686 15.8604C38.3009 15.6826 37.9751 15.4372 37.7085 15.124C37.4377 14.8109 37.2303 14.4427 37.0864 14.0195C36.9425 13.5964 36.8706 13.1372 36.8706 12.6421V12.5024ZM38.0449 12.6421C38.0449 12.9806 38.0851 13.3044 38.1655 13.6133C38.2459 13.918 38.3687 14.1867 38.5337 14.4194C38.6945 14.6522 38.8976 14.8363 39.1431 14.9717C39.3885 15.1071 39.6742 15.1748 40 15.1748C40.3216 15.1748 40.603 15.1071 40.8442 14.9717C41.0897 14.8363 41.2949 14.6522 41.46 14.4194C41.6208 14.1867 41.7414 13.918 41.8218 13.6133C41.9022 13.3044 41.9424 12.9806 41.9424 12.6421V12.5024C41.9424 12.1681 41.9001 11.8486 41.8154 11.5439C41.735 11.235 41.6144 10.9642 41.4536 10.7314C41.2886 10.4987 41.0833 10.3146 40.8379 10.1792C40.5967 10.0396 40.3132 9.96973 39.9873 9.96973C39.6615 9.96973 39.3779 10.0396 39.1367 10.1792C38.8955 10.3146 38.6945 10.4987 38.5337 10.7314C38.3687 10.9642 38.2459 11.235 38.1655 11.5439C38.0851 11.8486 38.0449 12.1681 38.0449 12.5024V12.6421ZM51.5088 9.00488C51.7246 9.00488 51.9489 9.01969 52.1816 9.04932C52.4186 9.07894 52.5964 9.11914 52.7148 9.16992L52.5562 10.3188C52.3276 10.2681 52.1097 10.2321 51.9023 10.2109C51.6992 10.1855 51.4855 10.1729 51.2612 10.1729C50.9735 10.1729 50.7132 10.2088 50.4805 10.2808C50.2477 10.3485 50.0446 10.45 49.8711 10.5854C49.7145 10.7039 49.577 10.8499 49.4585 11.0234C49.3442 11.1927 49.249 11.3831 49.1729 11.5947V16H47.9922V9.13184H49.1094L49.1602 10.0522L49.1665 10.2236C49.4458 9.84701 49.7801 9.55078 50.1694 9.33496C50.563 9.11491 51.0094 9.00488 51.5088 9.00488ZM56.5938 12.5088C56.5938 11.9967 56.6572 11.527 56.7842 11.0996C56.9154 10.668 57.1016 10.2977 57.3428 9.98877C57.5798 9.67985 57.8675 9.43864 58.2061 9.26514C58.5446 9.09163 58.9233 9.00488 59.3423 9.00488C59.7528 9.00488 60.1104 9.07471 60.415 9.21436C60.724 9.34977 60.9906 9.54867 61.2148 9.81104V6.25H62.3892V16H61.3101L61.2593 15.2764C61.0308 15.5557 60.7578 15.7673 60.4404 15.9111C60.123 16.055 59.7528 16.127 59.3296 16.127C58.9149 16.127 58.5382 16.0381 58.1997 15.8604C57.8654 15.6826 57.5798 15.4372 57.3428 15.124C57.1058 14.8109 56.9217 14.4427 56.7905 14.0195C56.6593 13.5921 56.5938 13.133 56.5938 12.6421V12.5088ZM57.7681 12.6421C57.7681 12.9764 57.804 13.2938 57.876 13.5942C57.9479 13.8947 58.0601 14.1592 58.2124 14.3877C58.3605 14.6162 58.5509 14.7982 58.7837 14.9336C59.0164 15.0648 59.2957 15.1304 59.6216 15.1304C60.0151 15.1304 60.341 15.0415 60.5991 14.8638C60.8573 14.686 61.0625 14.4469 61.2148 14.1465V10.96C61.0625 10.6807 60.8573 10.4521 60.5991 10.2744C60.341 10.0924 60.0194 10.0015 59.6343 10.0015C59.3042 10.0015 59.0207 10.0692 58.7837 10.2046C58.5509 10.34 58.3605 10.522 58.2124 10.7505C58.0601 10.9832 57.9479 11.252 57.876 11.5566C57.804 11.8571 57.7681 12.1745 57.7681 12.5088V12.6421Z" fill="#8C8A6E"/>
<rect x="80.5" y="2.5" width="95" height="17" rx="1.5" fill="#6A6853"/>
<rect x="80.5" y="2.5" width="95" height="17" rx="1.5" stroke="#6A6853"/>
<path d="M110.422 13.6641C110.422 13.3805 110.357 13.1414 110.226 12.9468C110.099 12.7521 109.934 12.5871 109.73 12.4517C109.527 12.3205 109.303 12.2104 109.058 12.1216C108.816 12.0327 108.584 11.9523 108.359 11.8804C108.034 11.7746 107.701 11.6476 107.363 11.4995C107.028 11.3472 106.724 11.1652 106.449 10.9536C106.169 10.7378 105.941 10.4839 105.763 10.1919C105.59 9.89567 105.503 9.54867 105.503 9.15088C105.503 8.75309 105.59 8.39762 105.763 8.08447C105.941 7.77132 106.172 7.50684 106.455 7.29102C106.739 7.0752 107.06 6.91227 107.42 6.80225C107.78 6.68799 108.141 6.63086 108.505 6.63086C108.907 6.63086 109.295 6.69857 109.667 6.83398C110.039 6.96517 110.369 7.15137 110.657 7.39258C110.945 7.63379 111.176 7.92578 111.349 8.26855C111.523 8.61133 111.614 8.9943 111.622 9.41748H110.416C110.382 9.15088 110.317 8.90967 110.219 8.69385C110.122 8.4738 109.993 8.28548 109.832 8.12891C109.671 7.97233 109.479 7.85173 109.254 7.76709C109.034 7.67822 108.785 7.63379 108.505 7.63379C108.281 7.63379 108.061 7.66553 107.845 7.729C107.634 7.79248 107.445 7.8877 107.28 8.01465C107.111 8.1416 106.976 8.29818 106.874 8.48438C106.777 8.67057 106.728 8.88639 106.728 9.13184C106.732 9.39844 106.8 9.62484 106.931 9.81104C107.062 9.993 107.229 10.1475 107.433 10.2744C107.632 10.4014 107.847 10.5072 108.08 10.5918C108.317 10.6764 108.539 10.7505 108.747 10.814C109.089 10.9198 109.432 11.0488 109.775 11.2012C110.118 11.3493 110.431 11.5397 110.714 11.7725C110.994 11.9883 111.218 12.2528 111.387 12.5659C111.561 12.8791 111.647 13.2409 111.647 13.6514C111.647 14.0661 111.554 14.4279 111.368 14.7368C111.186 15.0457 110.949 15.3018 110.657 15.5049C110.365 15.7122 110.035 15.8688 109.667 15.9746C109.299 16.0762 108.931 16.127 108.562 16.127C108.122 16.127 107.689 16.0529 107.261 15.9048C106.838 15.7567 106.47 15.543 106.157 15.2637C105.877 15.0225 105.655 14.741 105.49 14.4194C105.329 14.0936 105.243 13.7318 105.23 13.334H106.43C106.468 13.6217 106.546 13.8778 106.665 14.1021C106.783 14.3221 106.935 14.5083 107.122 14.6606C107.308 14.8172 107.521 14.9357 107.763 15.0161C108.008 15.0923 108.275 15.1304 108.562 15.1304C108.791 15.1304 109.015 15.1029 109.235 15.0479C109.46 14.9886 109.659 14.8976 109.832 14.7749C110.006 14.6564 110.147 14.5062 110.257 14.3242C110.367 14.138 110.422 13.918 110.422 13.6641ZM118.173 7.46875V9.13184H120.789V10.0396H118.173V13.772C118.173 14.0386 118.207 14.2586 118.275 14.4321C118.343 14.6056 118.436 14.7432 118.554 14.8447C118.673 14.9505 118.808 15.0246 118.96 15.0669C119.117 15.1092 119.282 15.1304 119.456 15.1304C119.583 15.1304 119.714 15.124 119.849 15.1113C119.985 15.0944 120.118 15.0754 120.249 15.0542C120.376 15.033 120.494 15.0119 120.604 14.9907C120.719 14.9653 120.812 14.9442 120.884 14.9272L121.049 15.7588C120.951 15.818 120.833 15.8709 120.693 15.9175C120.554 15.9598 120.401 15.9958 120.236 16.0254C120.071 16.0592 119.896 16.0846 119.709 16.1016C119.528 16.1185 119.346 16.127 119.164 16.127C118.859 16.127 118.573 16.0846 118.307 16C118.044 15.9111 117.816 15.7715 117.621 15.5811C117.426 15.3949 117.272 15.1536 117.158 14.8574C117.048 14.557 116.993 14.1951 116.993 13.772V10.0396H115.19V9.13184H116.993V7.46875H118.173ZM129.701 9.00488C129.917 9.00488 130.141 9.01969 130.374 9.04932C130.611 9.07894 130.789 9.11914 130.907 9.16992L130.749 10.3188C130.52 10.2681 130.302 10.2321 130.095 10.2109C129.892 10.1855 129.678 10.1729 129.454 10.1729C129.166 10.1729 128.906 10.2088 128.673 10.2808C128.44 10.3485 128.237 10.45 128.063 10.5854C127.907 10.7039 127.769 10.8499 127.651 11.0234C127.537 11.1927 127.441 11.3831 127.365 11.5947V16H126.185V9.13184H127.302L127.353 10.0522L127.359 10.2236C127.638 9.84701 127.972 9.55078 128.362 9.33496C128.755 9.11491 129.202 9.00488 129.701 9.00488ZM139.534 16L139.464 15.0542C139.236 15.3927 138.95 15.6572 138.607 15.8477C138.265 16.0339 137.869 16.127 137.42 16.127C137.061 16.127 136.735 16.0719 136.443 15.9619C136.151 15.8477 135.901 15.672 135.694 15.4351C135.486 15.1981 135.326 14.8976 135.211 14.5337C135.101 14.1655 135.046 13.7254 135.046 13.2134V9.13184H136.221V13.2261C136.221 13.5985 136.25 13.9074 136.31 14.1528C136.369 14.3983 136.458 14.5929 136.576 14.7368C136.695 14.8849 136.839 14.9886 137.008 15.0479C137.181 15.1071 137.38 15.1367 137.604 15.1367C137.867 15.1367 138.102 15.1071 138.309 15.0479C138.516 14.9844 138.696 14.8976 138.849 14.7876C138.976 14.6987 139.086 14.5929 139.179 14.4702C139.276 14.3433 139.356 14.2057 139.42 14.0576V9.13184H140.601V16H139.534ZM145.355 9.13184L145.387 9.7793C145.527 9.53809 145.709 9.34977 145.933 9.21436C146.162 9.07894 146.437 9.00911 146.758 9.00488C146.94 9.00488 147.103 9.02604 147.247 9.06836C147.395 9.10645 147.524 9.16357 147.634 9.23975C147.715 9.29899 147.787 9.37093 147.85 9.45557C147.918 9.5402 147.975 9.63542 148.021 9.74121C148.081 9.64388 148.151 9.5529 148.231 9.46826C148.311 9.38363 148.398 9.30957 148.491 9.24609C148.61 9.17415 148.741 9.11702 148.885 9.07471C149.033 9.03239 149.194 9.00911 149.367 9.00488C149.604 9.00488 149.818 9.04085 150.008 9.11279C150.199 9.1805 150.36 9.28206 150.491 9.41748C150.635 9.56982 150.745 9.76872 150.821 10.0142C150.897 10.2554 150.935 10.541 150.935 10.8711V16H149.818V10.8584C149.818 10.7145 149.801 10.5876 149.767 10.4775C149.733 10.3675 149.685 10.2765 149.621 10.2046C149.553 10.1369 149.469 10.0861 149.367 10.0522C149.27 10.0184 149.156 10.0015 149.024 10.0015C148.885 10.0015 148.764 10.0205 148.663 10.0586C148.561 10.0967 148.476 10.1475 148.409 10.2109C148.341 10.2786 148.288 10.3569 148.25 10.4458C148.212 10.5304 148.187 10.6257 148.174 10.7314C148.174 10.7526 148.174 10.7738 148.174 10.7949C148.174 10.8118 148.174 10.833 148.174 10.8584V16H147.057V10.8521C147.057 10.7082 147.04 10.5812 147.006 10.4712C146.976 10.3612 146.928 10.2702 146.86 10.1982C146.796 10.1305 146.716 10.0819 146.619 10.0522C146.526 10.0184 146.416 10.0015 146.289 10.0015C146.149 10.0015 146.026 10.0184 145.92 10.0522C145.819 10.0819 145.732 10.1263 145.66 10.1855C145.605 10.2321 145.556 10.285 145.514 10.3442C145.476 10.4035 145.444 10.467 145.419 10.5347V16H144.302V9.13184H145.355Z" fill="#CDCDCD"/>
</svg>
