<svg width="186" height="22" viewBox="0 0 186 22" fill="none" xmlns="http://www.w3.org/2000/svg">
<rect x="1" y="1" width="184" height="20" rx="3" fill="#1D1D1D"/>
<rect x="1" y="1" width="184" height="20" rx="3" stroke="#6A6853" stroke-width="2"/>
<rect x="2.5" y="2.5" width="95" height="17" rx="1.5" fill="#6A6853"/>
<rect x="2.5" y="2.5" width="95" height="17" rx="1.5" stroke="#6A6853"/>
<path d="M33.5713 13.2197C33.5163 13.6471 33.4062 14.0407 33.2412 14.4004C33.0762 14.7559 32.8625 15.0605 32.6001 15.3145C32.3335 15.5726 32.0182 15.7736 31.6543 15.9175C31.2946 16.0571 30.8926 16.127 30.4482 16.127C30.0674 16.127 29.7204 16.0741 29.4072 15.9683C29.0983 15.8582 28.8232 15.708 28.582 15.5176C28.3366 15.3271 28.125 15.1029 27.9473 14.8447C27.7738 14.5866 27.6299 14.3052 27.5156 14.0005C27.3971 13.6958 27.3083 13.3763 27.249 13.042C27.194 12.7077 27.1644 12.3691 27.1602 12.0264V10.7378C27.1644 10.395 27.194 10.0565 27.249 9.72217C27.3083 9.38786 27.3971 9.06836 27.5156 8.76367C27.6299 8.45898 27.7738 8.17757 27.9473 7.91943C28.125 7.65706 28.3366 7.43066 28.582 7.24023C28.8232 7.0498 29.0983 6.90169 29.4072 6.7959C29.7161 6.68587 30.0632 6.63086 30.4482 6.63086C30.9095 6.63086 31.3221 6.7028 31.686 6.84668C32.05 6.98633 32.3631 7.18522 32.6255 7.44336C32.8879 7.70573 33.0973 8.01888 33.2539 8.38281C33.4147 8.74674 33.5205 9.14876 33.5713 9.58887H32.397C32.3589 9.30957 32.2933 9.04932 32.2002 8.80811C32.1071 8.56689 31.9823 8.35531 31.8257 8.17334C31.6691 7.99137 31.4766 7.84961 31.248 7.74805C31.0238 7.64225 30.7572 7.58936 30.4482 7.58936C30.1689 7.58936 29.9214 7.6359 29.7056 7.729C29.494 7.81787 29.312 7.94059 29.1597 8.09717C29.0031 8.25374 28.8719 8.43571 28.7661 8.64307C28.6646 8.85042 28.582 9.07048 28.5186 9.30322C28.4551 9.53597 28.4085 9.77507 28.3789 10.0205C28.3535 10.2617 28.3408 10.4966 28.3408 10.7251V12.0264C28.3408 12.2549 28.3535 12.4919 28.3789 12.7373C28.4085 12.9785 28.4551 13.2155 28.5186 13.4482C28.582 13.6852 28.6646 13.9074 28.7661 14.1147C28.8677 14.3221 28.9967 14.5041 29.1533 14.6606C29.3099 14.8215 29.494 14.9484 29.7056 15.0415C29.9172 15.1304 30.1647 15.1748 30.4482 15.1748C30.7572 15.1748 31.0238 15.1261 31.248 15.0288C31.4766 14.9315 31.6691 14.7939 31.8257 14.6162C31.9823 14.4427 32.1071 14.2375 32.2002 14.0005C32.2933 13.7593 32.3589 13.499 32.397 13.2197H33.5713ZM38.5674 10.1538C38.6605 10.0142 38.7642 9.88721 38.8784 9.77295C38.9927 9.65446 39.1133 9.55078 39.2402 9.46191C39.4434 9.3138 39.6655 9.20166 39.9067 9.12549C40.1522 9.04932 40.4124 9.00911 40.6875 9.00488C41.0472 9.00488 41.373 9.05778 41.665 9.16357C41.9613 9.26514 42.2131 9.42594 42.4204 9.646C42.6278 9.86605 42.7865 10.1453 42.8965 10.4839C43.0107 10.8182 43.0679 11.216 43.0679 11.6772V16H41.8936V11.6646C41.8936 11.3937 41.8618 11.1567 41.7983 10.9536C41.7349 10.7463 41.6418 10.5749 41.519 10.4395C41.3879 10.2913 41.2228 10.1813 41.0239 10.1094C40.825 10.0332 40.5965 9.99723 40.3384 10.0015C40.1268 10.0015 39.9258 10.0311 39.7354 10.0903C39.5449 10.1496 39.3693 10.2342 39.2085 10.3442C39.0815 10.4289 38.9631 10.5283 38.853 10.6426C38.7472 10.7526 38.652 10.8753 38.5674 11.0107V16H37.3931V6.25H38.5674V10.1538ZM46.8706 12.5024C46.8706 12.0073 46.9425 11.5482 47.0864 11.125C47.2303 10.6976 47.4377 10.3273 47.7085 10.0142C47.9751 9.70101 48.3009 9.45557 48.686 9.27783C49.0711 9.09587 49.5049 9.00488 49.9873 9.00488C50.474 9.00488 50.9098 9.09587 51.2949 9.27783C51.6842 9.45557 52.0143 9.70101 52.2852 10.0142C52.5518 10.3273 52.757 10.6976 52.9009 11.125C53.0448 11.5482 53.1167 12.0073 53.1167 12.5024V12.6421C53.1167 13.1372 53.0448 13.5964 52.9009 14.0195C52.757 14.4427 52.5518 14.8109 52.2852 15.124C52.0143 15.4372 51.6864 15.6826 51.3013 15.8604C50.9162 16.0381 50.4824 16.127 50 16.127C49.5133 16.127 49.0754 16.0381 48.686 15.8604C48.3009 15.6826 47.9751 15.4372 47.7085 15.124C47.4377 14.8109 47.2303 14.4427 47.0864 14.0195C46.9425 13.5964 46.8706 13.1372 46.8706 12.6421V12.5024ZM48.0449 12.6421C48.0449 12.9806 48.0851 13.3044 48.1655 13.6133C48.2459 13.918 48.3687 14.1867 48.5337 14.4194C48.6945 14.6522 48.8976 14.8363 49.1431 14.9717C49.3885 15.1071 49.6742 15.1748 50 15.1748C50.3216 15.1748 50.603 15.1071 50.8442 14.9717C51.0897 14.8363 51.2949 14.6522 51.46 14.4194C51.6208 14.1867 51.7414 13.918 51.8218 13.6133C51.9022 13.3044 51.9424 12.9806 51.9424 12.6421V12.5024C51.9424 12.1681 51.9001 11.8486 51.8154 11.5439C51.735 11.235 51.6144 10.9642 51.4536 10.7314C51.2886 10.4987 51.0833 10.3146 50.8379 10.1792C50.5967 10.0396 50.3132 9.96973 49.9873 9.96973C49.6615 9.96973 49.3779 10.0396 49.1367 10.1792C48.8955 10.3146 48.6945 10.4987 48.5337 10.7314C48.3687 10.9642 48.2459 11.235 48.1655 11.5439C48.0851 11.8486 48.0449 12.1681 48.0449 12.5024V12.6421ZM61.5088 9.00488C61.7246 9.00488 61.9489 9.01969 62.1816 9.04932C62.4186 9.07894 62.5964 9.11914 62.7148 9.16992L62.5562 10.3188C62.3276 10.2681 62.1097 10.2321 61.9023 10.2109C61.6992 10.1855 61.4855 10.1729 61.2612 10.1729C60.9735 10.1729 60.7132 10.2088 60.4805 10.2808C60.2477 10.3485 60.0446 10.45 59.8711 10.5854C59.7145 10.7039 59.577 10.8499 59.4585 11.0234C59.3442 11.1927 59.249 11.3831 59.1729 11.5947V16H57.9922V9.13184H59.1094L59.1602 10.0522L59.1665 10.2236C59.4458 9.84701 59.7801 9.55078 60.1694 9.33496C60.563 9.11491 61.0094 9.00488 61.5088 9.00488ZM66.5938 12.5088C66.5938 11.9967 66.6572 11.527 66.7842 11.0996C66.9154 10.668 67.1016 10.2977 67.3428 9.98877C67.5798 9.67985 67.8675 9.43864 68.2061 9.26514C68.5446 9.09163 68.9233 9.00488 69.3423 9.00488C69.7528 9.00488 70.1104 9.07471 70.415 9.21436C70.724 9.34977 70.9906 9.54867 71.2148 9.81104V6.25H72.3892V16H71.3101L71.2593 15.2764C71.0308 15.5557 70.7578 15.7673 70.4404 15.9111C70.123 16.055 69.7528 16.127 69.3296 16.127C68.9149 16.127 68.5382 16.0381 68.1997 15.8604C67.8654 15.6826 67.5798 15.4372 67.3428 15.124C67.1058 14.8109 66.9217 14.4427 66.7905 14.0195C66.6593 13.5921 66.5938 13.133 66.5938 12.6421V12.5088ZM67.7681 12.6421C67.7681 12.9764 67.804 13.2938 67.876 13.5942C67.9479 13.8947 68.0601 14.1592 68.2124 14.3877C68.3605 14.6162 68.5509 14.7982 68.7837 14.9336C69.0164 15.0648 69.2957 15.1304 69.6216 15.1304C70.0151 15.1304 70.341 15.0415 70.5991 14.8638C70.8573 14.686 71.0625 14.4469 71.2148 14.1465V10.96C71.0625 10.6807 70.8573 10.4521 70.5991 10.2744C70.341 10.0924 70.0194 10.0015 69.6343 10.0015C69.3042 10.0015 69.0207 10.0692 68.7837 10.2046C68.5509 10.34 68.3605 10.522 68.2124 10.7505C68.0601 10.9832 67.9479 11.252 67.876 11.5566C67.804 11.8571 67.7681 12.1745 67.7681 12.5088V12.6421Z" fill="#CDCDCD"/>
<path opacity="0.5" d="M120.422 13.6641C120.422 13.3805 120.357 13.1414 120.226 12.9468C120.099 12.7521 119.934 12.5871 119.73 12.4517C119.527 12.3205 119.303 12.2104 119.058 12.1216C118.816 12.0327 118.584 11.9523 118.359 11.8804C118.034 11.7746 117.701 11.6476 117.363 11.4995C117.028 11.3472 116.724 11.1652 116.449 10.9536C116.169 10.7378 115.941 10.4839 115.763 10.1919C115.59 9.89567 115.503 9.54867 115.503 9.15088C115.503 8.75309 115.59 8.39762 115.763 8.08447C115.941 7.77132 116.172 7.50684 116.455 7.29102C116.739 7.0752 117.06 6.91227 117.42 6.80225C117.78 6.68799 118.141 6.63086 118.505 6.63086C118.907 6.63086 119.295 6.69857 119.667 6.83398C120.039 6.96517 120.369 7.15137 120.657 7.39258C120.945 7.63379 121.176 7.92578 121.349 8.26855C121.523 8.61133 121.614 8.9943 121.622 9.41748H120.416C120.382 9.15088 120.317 8.90967 120.219 8.69385C120.122 8.4738 119.993 8.28548 119.832 8.12891C119.671 7.97233 119.479 7.85173 119.254 7.76709C119.034 7.67822 118.785 7.63379 118.505 7.63379C118.281 7.63379 118.061 7.66553 117.845 7.729C117.634 7.79248 117.445 7.8877 117.28 8.01465C117.111 8.1416 116.976 8.29818 116.874 8.48438C116.777 8.67057 116.728 8.88639 116.728 9.13184C116.732 9.39844 116.8 9.62484 116.931 9.81104C117.062 9.993 117.229 10.1475 117.433 10.2744C117.632 10.4014 117.847 10.5072 118.08 10.5918C118.317 10.6764 118.539 10.7505 118.747 10.814C119.089 10.9198 119.432 11.0488 119.775 11.2012C120.118 11.3493 120.431 11.5397 120.714 11.7725C120.994 11.9883 121.218 12.2528 121.387 12.5659C121.561 12.8791 121.647 13.2409 121.647 13.6514C121.647 14.0661 121.554 14.4279 121.368 14.7368C121.186 15.0457 120.949 15.3018 120.657 15.5049C120.365 15.7122 120.035 15.8688 119.667 15.9746C119.299 16.0762 118.931 16.127 118.562 16.127C118.122 16.127 117.689 16.0529 117.261 15.9048C116.838 15.7567 116.47 15.543 116.157 15.2637C115.877 15.0225 115.655 14.741 115.49 14.4194C115.329 14.0936 115.243 13.7318 115.23 13.334H116.43C116.468 13.6217 116.546 13.8778 116.665 14.1021C116.783 14.3221 116.935 14.5083 117.122 14.6606C117.308 14.8172 117.521 14.9357 117.763 15.0161C118.008 15.0923 118.275 15.1304 118.562 15.1304C118.791 15.1304 119.015 15.1029 119.235 15.0479C119.46 14.9886 119.659 14.8976 119.832 14.7749C120.006 14.6564 120.147 14.5062 120.257 14.3242C120.367 14.138 120.422 13.918 120.422 13.6641ZM128.173 7.46875V9.13184H130.789V10.0396H128.173V13.772C128.173 14.0386 128.207 14.2586 128.275 14.4321C128.343 14.6056 128.436 14.7432 128.554 14.8447C128.673 14.9505 128.808 15.0246 128.96 15.0669C129.117 15.1092 129.282 15.1304 129.456 15.1304C129.583 15.1304 129.714 15.124 129.849 15.1113C129.985 15.0944 130.118 15.0754 130.249 15.0542C130.376 15.033 130.494 15.0119 130.604 14.9907C130.719 14.9653 130.812 14.9442 130.884 14.9272L131.049 15.7588C130.951 15.818 130.833 15.8709 130.693 15.9175C130.554 15.9598 130.401 15.9958 130.236 16.0254C130.071 16.0592 129.896 16.0846 129.709 16.1016C129.528 16.1185 129.346 16.127 129.164 16.127C128.859 16.127 128.573 16.0846 128.307 16C128.044 15.9111 127.816 15.7715 127.621 15.5811C127.426 15.3949 127.272 15.1536 127.158 14.8574C127.048 14.557 126.993 14.1951 126.993 13.772V10.0396H125.19V9.13184H126.993V7.46875H128.173ZM139.701 9.00488C139.917 9.00488 140.141 9.01969 140.374 9.04932C140.611 9.07894 140.789 9.11914 140.907 9.16992L140.749 10.3188C140.52 10.2681 140.302 10.2321 140.095 10.2109C139.892 10.1855 139.678 10.1729 139.454 10.1729C139.166 10.1729 138.906 10.2088 138.673 10.2808C138.44 10.3485 138.237 10.45 138.063 10.5854C137.907 10.7039 137.769 10.8499 137.651 11.0234C137.537 11.1927 137.441 11.3831 137.365 11.5947V16H136.185V9.13184H137.302L137.353 10.0522L137.359 10.2236C137.638 9.84701 137.972 9.55078 138.362 9.33496C138.755 9.11491 139.202 9.00488 139.701 9.00488ZM149.534 16L149.464 15.0542C149.236 15.3927 148.95 15.6572 148.607 15.8477C148.265 16.0339 147.869 16.127 147.42 16.127C147.061 16.127 146.735 16.0719 146.443 15.9619C146.151 15.8477 145.901 15.672 145.694 15.4351C145.486 15.1981 145.326 14.8976 145.211 14.5337C145.101 14.1655 145.046 13.7254 145.046 13.2134V9.13184H146.221V13.2261C146.221 13.5985 146.25 13.9074 146.31 14.1528C146.369 14.3983 146.458 14.5929 146.576 14.7368C146.695 14.8849 146.839 14.9886 147.008 15.0479C147.181 15.1071 147.38 15.1367 147.604 15.1367C147.867 15.1367 148.102 15.1071 148.309 15.0479C148.516 14.9844 148.696 14.8976 148.849 14.7876C148.976 14.6987 149.086 14.5929 149.179 14.4702C149.276 14.3433 149.356 14.2057 149.42 14.0576V9.13184H150.601V16H149.534ZM155.355 9.13184L155.387 9.7793C155.527 9.53809 155.709 9.34977 155.933 9.21436C156.162 9.07894 156.437 9.00911 156.758 9.00488C156.94 9.00488 157.103 9.02604 157.247 9.06836C157.395 9.10645 157.524 9.16357 157.634 9.23975C157.715 9.29899 157.787 9.37093 157.85 9.45557C157.918 9.5402 157.975 9.63542 158.021 9.74121C158.081 9.64388 158.151 9.5529 158.231 9.46826C158.311 9.38363 158.398 9.30957 158.491 9.24609C158.61 9.17415 158.741 9.11702 158.885 9.07471C159.033 9.03239 159.194 9.00911 159.367 9.00488C159.604 9.00488 159.818 9.04085 160.008 9.11279C160.199 9.1805 160.36 9.28206 160.491 9.41748C160.635 9.56982 160.745 9.76872 160.821 10.0142C160.897 10.2554 160.935 10.541 160.935 10.8711V16H159.818V10.8584C159.818 10.7145 159.801 10.5876 159.767 10.4775C159.733 10.3675 159.685 10.2765 159.621 10.2046C159.553 10.1369 159.469 10.0861 159.367 10.0522C159.27 10.0184 159.156 10.0015 159.024 10.0015C158.885 10.0015 158.764 10.0205 158.663 10.0586C158.561 10.0967 158.476 10.1475 158.409 10.2109C158.341 10.2786 158.288 10.3569 158.25 10.4458C158.212 10.5304 158.187 10.6257 158.174 10.7314C158.174 10.7526 158.174 10.7738 158.174 10.7949C158.174 10.8118 158.174 10.833 158.174 10.8584V16H157.057V10.8521C157.057 10.7082 157.04 10.5812 157.006 10.4712C156.976 10.3612 156.928 10.2702 156.86 10.1982C156.796 10.1305 156.716 10.0819 156.619 10.0522C156.526 10.0184 156.416 10.0015 156.289 10.0015C156.149 10.0015 156.026 10.0184 155.92 10.0522C155.819 10.0819 155.732 10.1263 155.66 10.1855C155.605 10.2321 155.556 10.285 155.514 10.3442C155.476 10.4035 155.444 10.467 155.419 10.5347V16H154.302V9.13184H155.355Z" fill="#8C8A6E"/>
</svg>
