<svg width="18" height="21" viewBox="0 0 18 21" fill="none" xmlns="http://www.w3.org/2000/svg">
<path d="M11.9731 14.6856L12.0327 16.5832C12.0813 18.1871 10.8112 19.5418 9.20727 19.5904L8.34945 19.622C6.74549 19.6706 5.39084 18.4005 5.34223 16.7965L5.17075 11.5794C5.12214 9.97544 6.39223 8.62079 7.9962 8.57219L8.85401 8.54058" stroke="#EAEAEA" stroke-width="2.17628" stroke-miterlimit="10" stroke-linecap="round"/>
<path d="M5.29236 6.3122L5.22519 4.20593C5.17658 2.60197 6.44667 1.24732 8.05064 1.19871L8.90845 1.16711C10.5124 1.1185 11.8671 2.38859 11.9157 3.99256L12.0872 9.20968C12.1358 10.8136 10.8657 12.1683 9.26171 12.2169L8.40389 12.2485" stroke="#EAEAEA" stroke-width="2.17628" stroke-miterlimit="10" stroke-linecap="round"/>
<path d="M12.0245 14.6878L12.0056 15.3553" stroke="#EAEAEA" stroke-width="2.17628" stroke-miterlimit="10" stroke-linecap="round"/>
<path d="M9.17352 12.2321L8.40316 12.2655" stroke="#EAEAEA" stroke-width="1.45085" stroke-miterlimit="10" stroke-linecap="round"/>
<path d="M5.25157 4.85896L5.29071 6.48059" stroke="#EAEAEA" stroke-width="1.45085" stroke-miterlimit="10" stroke-linecap="round"/>
<path d="M7.65854 8.60923L7.65845 8.60927" stroke="#EAEAEA" stroke-width="1.45085" stroke-miterlimit="10" stroke-linecap="round"/>
</svg>
