<svg width="25" height="26" viewBox="0 0 25 26" fill="none" xmlns="http://www.w3.org/2000/svg">
<path d="M13.3779 18.5022L13.6983 20.2576C13.9675 21.7416 12.9762 23.178 11.4922 23.4472L10.6993 23.5964C9.21525 23.8656 7.77879 22.8743 7.50961 21.3902L6.62163 16.5651C6.35245 15.0811 7.34376 13.6446 8.82778 13.3755L9.62067 13.2263" stroke="#EAEAEA" stroke-width="2.04545" stroke-miterlimit="10" stroke-linecap="round"/>
<path d="M10.9887 7.61063L11.3128 5.65668C11.562 4.16918 12.9812 3.15322 14.4687 3.40243L15.2652 3.53054C16.7528 3.77975 17.7687 5.19889 17.5195 6.68639L16.7212 11.5272C16.472 13.0147 15.0529 14.0306 13.5654 13.7814L12.7688 13.6533" stroke="#EAEAEA" stroke-width="2.04545" stroke-miterlimit="10" stroke-linecap="round"/>
<path d="M16.5613 18.4286L18.0297 21.5128" stroke="#EAEAEA" stroke-width="1.36364" stroke-miterlimit="10" stroke-linecap="round"/>
<path d="M18.1445 15.4094L21.547 15.1488" stroke="#EAEAEA" stroke-width="1.36364" stroke-miterlimit="10" stroke-linecap="round"/>
<path d="M8.09324 7.31949L6.15613 4.50376" stroke="#EAEAEA" stroke-width="1.36364" stroke-miterlimit="10" stroke-linecap="round"/>
<path d="M6.60091 10.371L3.28284 11.1578" stroke="#EAEAEA" stroke-width="1.36364" stroke-miterlimit="10" stroke-linecap="round"/>
</svg>
