<svg width="583" height="78" viewBox="0 0 583 78" fill="none" xmlns="http://www.w3.org/2000/svg">
<g clip-path="url(#clip0_454_2116)">
<rect width="882" height="843.46" transform="translate(-299 -382)" fill="#230D23"/>
<path opacity="0.45" d="M122.73 343.46C290.475 343.46 426.46 207.475 426.46 39.73C426.46 -128.015 290.475 -264 122.73 -264C-45.0155 -264 -181 -128.015 -181 39.73C-181 207.475 -45.0155 343.46 122.73 343.46Z" stroke="#AC3FAF" stroke-miterlimit="10" stroke-linecap="round" stroke-dasharray="4 8"/>
<path d="M292.5 292C438.027 292 556 179.176 556 40C556 -99.1758 438.027 -212 292.5 -212C146.973 -212 29 -99.1758 29 40C29 179.176 146.973 292 292.5 292Z" fill="#2B112B"/>
<path d="M216.068 204.55C311.099 204.55 388.137 130.878 388.137 39.9999C388.137 -50.8784 311.099 -124.55 216.068 -124.55C121.038 -124.55 44 -50.8784 44 39.9999C44 130.878 121.038 204.55 216.068 204.55Z" fill="#3C173B"/>
<path d="M370.068 204.55C465.099 204.55 542.137 130.878 542.137 39.9999C542.137 -50.8784 465.099 -124.55 370.068 -124.55C275.038 -124.55 198 -50.8784 198 39.9999C198 130.878 275.038 204.55 370.068 204.55Z" fill="#3C173B"/>
<path d="M163.166 140.435C221.169 140.435 268.19 95.4688 268.19 40.0002C268.19 -15.4684 221.169 -60.4346 163.166 -60.4346C105.163 -60.4346 58.1418 -15.4684 58.1418 40.0002C58.1418 95.4688 105.163 140.435 163.166 140.435Z" fill="#4F204F"/>
<path d="M422.024 140.87C480.027 140.87 527.048 95.9034 527.048 40.4348C527.048 -15.0338 480.027 -60 422.024 -60C364.021 -60 317 -15.0338 317 40.4348C317 95.9034 364.021 140.87 422.024 140.87Z" fill="#4F204F"/>
<path d="M124.317 91.8086C154.238 91.8086 178.493 68.6133 178.493 40.0004C178.493 11.3875 154.238 -11.8079 124.317 -11.8079C94.397 -11.8079 70.1418 11.3875 70.1418 40.0004C70.1418 68.6133 94.397 91.8086 124.317 91.8086Z" fill="#6B286C"/>
<path d="M456.078 92.2432C485.999 92.2432 510.254 69.0479 510.254 40.435C510.254 11.8221 485.999 -11.3733 456.078 -11.3733C426.158 -11.3733 401.903 11.8221 401.903 40.435C401.903 69.0479 426.158 92.2432 456.078 92.2432Z" fill="#6B286C"/>
<path d="M110.025 59.1505C121.085 59.1505 130.051 50.5765 130.051 40C130.051 29.4235 121.085 20.8496 110.025 20.8496C98.9657 20.8496 90 29.4235 90 40C90 50.5765 98.9657 59.1505 110.025 59.1505Z" fill="#AC3FAF"/>
<path d="M476.928 59.7355C487.988 59.7355 496.954 51.1615 496.954 40.585C496.954 30.0085 487.988 21.4346 476.928 21.4346C465.869 21.4346 456.903 30.0085 456.903 40.585C456.903 51.1615 465.869 59.7355 476.928 59.7355Z" fill="#AC3FAF"/>
</g>
<defs>
<clipPath id="clip0_454_2116">
<rect width="583" height="78" fill="white"/>
</clipPath>
</defs>
</svg>
