<svg width="200" height="22" viewBox="0 0 200 22" fill="none" xmlns="http://www.w3.org/2000/svg">
<rect x="1" y="1" width="198" height="20" rx="3" fill="#1D1D1D"/>
<rect x="1" y="1" width="198" height="20" rx="3" stroke="#6A6853" stroke-width="2"/>
<rect x="2.5" y="2.5" width="98" height="17" rx="1.5" fill="#6A6853"/>
<rect x="2.5" y="2.5" width="98" height="17" rx="1.5" stroke="#6A6853"/>
<path d="M25.0669 16H23.8735L20.2871 9.09375L20.2681 16H19.0811V6.75781H20.2744L23.8608 13.6514L23.8799 6.75781H25.0669V16ZM33.5986 16C33.5521 15.9111 33.514 15.8011 33.4844 15.6699C33.459 15.5345 33.4399 15.3949 33.4272 15.251C33.3088 15.3695 33.1755 15.4816 33.0273 15.5874C32.8835 15.6932 32.7248 15.7863 32.5513 15.8667C32.3735 15.9471 32.1852 16.0106 31.9863 16.0571C31.7874 16.1037 31.5758 16.127 31.3516 16.127C30.9876 16.127 30.6576 16.0741 30.3613 15.9683C30.0693 15.8625 29.8218 15.7186 29.6187 15.5366C29.4113 15.3589 29.2505 15.1473 29.1362 14.9019C29.0262 14.6522 28.9712 14.3835 28.9712 14.0957C28.9712 13.7191 29.0452 13.389 29.1934 13.1055C29.3457 12.8219 29.5594 12.585 29.8345 12.3945C30.1095 12.2083 30.4396 12.0687 30.8247 11.9756C31.214 11.8825 31.6478 11.8359 32.126 11.8359H33.4082V11.2964C33.4082 11.089 33.3701 10.9028 33.2939 10.7378C33.2178 10.5728 33.1099 10.431 32.9702 10.3125C32.8306 10.1982 32.6592 10.1094 32.4561 10.0459C32.2572 9.98242 32.0329 9.95068 31.7832 9.95068C31.5505 9.95068 31.341 9.98031 31.1548 10.0396C30.9728 10.0988 30.8184 10.1771 30.6914 10.2744C30.5645 10.3717 30.465 10.4881 30.3931 10.6235C30.3254 10.7547 30.2915 10.8923 30.2915 11.0361H29.1108C29.1151 10.7865 29.1785 10.541 29.3013 10.2998C29.4282 10.0586 29.6102 9.84066 29.8472 9.646C30.0799 9.45557 30.3634 9.30111 30.6978 9.18262C31.0363 9.06413 31.4193 9.00488 31.8467 9.00488C32.236 9.00488 32.5978 9.05355 32.9321 9.15088C33.2664 9.24398 33.5563 9.38574 33.8018 9.57617C34.043 9.77083 34.2334 10.012 34.373 10.2998C34.5127 10.5876 34.5825 10.924 34.5825 11.3091V14.502C34.5825 14.7305 34.6037 14.9738 34.646 15.2319C34.6883 15.4858 34.7476 15.708 34.8237 15.8984V16H33.5986ZM31.5229 15.105C31.7515 15.105 31.9652 15.0754 32.1641 15.0161C32.363 14.9569 32.5449 14.8786 32.71 14.7812C32.8708 14.6839 33.0104 14.5739 33.1289 14.4512C33.2474 14.3242 33.3405 14.193 33.4082 14.0576V12.6675H32.3164C31.9102 12.6675 31.5547 12.7035 31.25 12.7754C30.9495 12.8431 30.7104 12.9489 30.5327 13.0928C30.4058 13.1943 30.3084 13.3149 30.2407 13.4546C30.1772 13.5942 30.1455 13.7529 30.1455 13.9307C30.1455 14.0999 30.173 14.2565 30.228 14.4004C30.2873 14.5443 30.374 14.667 30.4883 14.7686C30.6025 14.8743 30.7464 14.9569 30.9199 15.0161C31.0934 15.0754 31.2944 15.105 31.5229 15.105ZM41.6733 7.46875V9.13184H44.2886V10.0396H41.6733V13.772C41.6733 14.0386 41.7072 14.2586 41.7749 14.4321C41.8426 14.6056 41.9357 14.7432 42.0542 14.8447C42.1727 14.9505 42.3081 15.0246 42.4604 15.0669C42.617 15.1092 42.7821 15.1304 42.9556 15.1304C43.0825 15.1304 43.2137 15.124 43.3491 15.1113C43.4845 15.0944 43.6178 15.0754 43.749 15.0542C43.876 15.033 43.9945 15.0119 44.1045 14.9907C44.2188 14.9653 44.3118 14.9442 44.3838 14.9272L44.5488 15.7588C44.4515 15.818 44.333 15.8709 44.1934 15.9175C44.0537 15.9598 43.9014 15.9958 43.7363 16.0254C43.5713 16.0592 43.3957 16.0846 43.2095 16.1016C43.0275 16.1185 42.8455 16.127 42.6636 16.127C42.3589 16.127 42.0732 16.0846 41.8066 16C41.5443 15.9111 41.3158 15.7715 41.1211 15.5811C40.9264 15.3949 40.772 15.1536 40.6577 14.8574C40.5477 14.557 40.4927 14.1951 40.4927 13.772V10.0396H38.6899V9.13184H40.4927V7.46875H41.6733ZM53.2266 16L53.1567 15.0542C52.9282 15.3927 52.6426 15.6572 52.2998 15.8477C51.957 16.0339 51.5614 16.127 51.1128 16.127C50.7531 16.127 50.4272 16.0719 50.1353 15.9619C49.8433 15.8477 49.5936 15.672 49.3862 15.4351C49.1789 15.1981 49.0181 14.8976 48.9038 14.5337C48.7938 14.1655 48.7388 13.7254 48.7388 13.2134V9.13184H49.9131V13.2261C49.9131 13.5985 49.9427 13.9074 50.002 14.1528C50.0612 14.3983 50.1501 14.5929 50.2686 14.7368C50.387 14.8849 50.5309 14.9886 50.7002 15.0479C50.8737 15.1071 51.0726 15.1367 51.2969 15.1367C51.5592 15.1367 51.7941 15.1071 52.0015 15.0479C52.2088 14.9844 52.3887 14.8976 52.541 14.7876C52.668 14.6987 52.778 14.5929 52.8711 14.4702C52.9684 14.3433 53.0488 14.2057 53.1123 14.0576V9.13184H54.293V16H53.2266ZM63.0088 9.00488C63.2246 9.00488 63.4489 9.01969 63.6816 9.04932C63.9186 9.07894 64.0964 9.11914 64.2148 9.16992L64.0562 10.3188C63.8276 10.2681 63.6097 10.2321 63.4023 10.2109C63.1992 10.1855 62.9855 10.1729 62.7612 10.1729C62.4735 10.1729 62.2132 10.2088 61.9805 10.2808C61.7477 10.3485 61.5446 10.45 61.3711 10.5854C61.2145 10.7039 61.077 10.8499 60.9585 11.0234C60.8442 11.1927 60.749 11.3831 60.6729 11.5947V16H59.4922V9.13184H60.6094L60.6602 10.0522L60.6665 10.2236C60.9458 9.84701 61.2801 9.55078 61.6694 9.33496C62.063 9.11491 62.5094 9.00488 63.0088 9.00488ZM72.8291 16C72.7826 15.9111 72.7445 15.8011 72.7148 15.6699C72.6895 15.5345 72.6704 15.3949 72.6577 15.251C72.5392 15.3695 72.4059 15.4816 72.2578 15.5874C72.1139 15.6932 71.9552 15.7863 71.7817 15.8667C71.604 15.9471 71.4157 16.0106 71.2168 16.0571C71.0179 16.1037 70.8063 16.127 70.582 16.127C70.2181 16.127 69.888 16.0741 69.5918 15.9683C69.2998 15.8625 69.0522 15.7186 68.8491 15.5366C68.6418 15.3589 68.481 15.1473 68.3667 14.9019C68.2567 14.6522 68.2017 14.3835 68.2017 14.0957C68.2017 13.7191 68.2757 13.389 68.4238 13.1055C68.5762 12.8219 68.7899 12.585 69.0649 12.3945C69.34 12.2083 69.6701 12.0687 70.0552 11.9756C70.4445 11.8825 70.8783 11.8359 71.3564 11.8359H72.6387V11.2964C72.6387 11.089 72.6006 10.9028 72.5244 10.7378C72.4482 10.5728 72.3403 10.431 72.2007 10.3125C72.061 10.1982 71.8896 10.1094 71.6865 10.0459C71.4876 9.98242 71.2633 9.95068 71.0137 9.95068C70.7809 9.95068 70.5715 9.98031 70.3853 10.0396C70.2033 10.0988 70.0488 10.1771 69.9219 10.2744C69.7949 10.3717 69.6955 10.4881 69.6235 10.6235C69.5558 10.7547 69.522 10.8923 69.522 11.0361H68.3413C68.3455 10.7865 68.409 10.541 68.5317 10.2998C68.6587 10.0586 68.8407 9.84066 69.0776 9.646C69.3104 9.45557 69.5939 9.30111 69.9282 9.18262C70.2668 9.06413 70.6497 9.00488 71.0771 9.00488C71.4665 9.00488 71.8283 9.05355 72.1626 9.15088C72.4969 9.24398 72.7868 9.38574 73.0322 9.57617C73.2734 9.77083 73.4639 10.012 73.6035 10.2998C73.7432 10.5876 73.813 10.924 73.813 11.3091V14.502C73.813 14.7305 73.8341 14.9738 73.8765 15.2319C73.9188 15.4858 73.978 15.708 74.0542 15.8984V16H72.8291ZM70.7534 15.105C70.9819 15.105 71.1956 15.0754 71.3945 15.0161C71.5934 14.9569 71.7754 14.8786 71.9404 14.7812C72.1012 14.6839 72.2409 14.5739 72.3594 14.4512C72.4779 14.3242 72.571 14.193 72.6387 14.0576V12.6675H71.5469C71.1406 12.6675 70.7852 12.7035 70.4805 12.7754C70.18 12.8431 69.9409 12.9489 69.7632 13.0928C69.6362 13.1943 69.5389 13.3149 69.4712 13.4546C69.4077 13.5942 69.376 13.7529 69.376 13.9307C69.376 14.0999 69.4035 14.2565 69.4585 14.4004C69.5177 14.5443 69.6045 14.667 69.7188 14.7686C69.833 14.8743 69.9769 14.9569 70.1504 15.0161C70.3239 15.0754 70.5249 15.105 70.7534 15.105ZM78.3076 6.25H81.8179V14.9844H84.0586V16H78.3076V14.9844H80.6436V7.27197H78.3076V6.25Z" fill="#CDCDCD"/>
<path opacity="0.5" d="M124.264 13.2197C124.209 13.6471 124.099 14.0407 123.934 14.4004C123.769 14.7559 123.555 15.0605 123.292 15.3145C123.026 15.5726 122.711 15.7736 122.347 15.9175C121.987 16.0571 121.585 16.127 121.141 16.127C120.76 16.127 120.413 16.0741 120.1 15.9683C119.791 15.8582 119.516 15.708 119.274 15.5176C119.029 15.3271 118.817 15.1029 118.64 14.8447C118.466 14.5866 118.322 14.3052 118.208 14.0005C118.09 13.6958 118.001 13.3763 117.941 13.042C117.886 12.7077 117.857 12.3691 117.853 12.0264V10.7378C117.857 10.395 117.886 10.0565 117.941 9.72217C118.001 9.38786 118.09 9.06836 118.208 8.76367C118.322 8.45898 118.466 8.17757 118.64 7.91943C118.817 7.65706 119.029 7.43066 119.274 7.24023C119.516 7.0498 119.791 6.90169 120.1 6.7959C120.409 6.68587 120.756 6.63086 121.141 6.63086C121.602 6.63086 122.014 6.7028 122.378 6.84668C122.742 6.98633 123.056 7.18522 123.318 7.44336C123.58 7.70573 123.79 8.01888 123.946 8.38281C124.107 8.74674 124.213 9.14876 124.264 9.58887H123.089C123.051 9.30957 122.986 9.04932 122.893 8.80811C122.799 8.56689 122.675 8.35531 122.518 8.17334C122.361 7.99137 122.169 7.84961 121.94 7.74805C121.716 7.64225 121.45 7.58936 121.141 7.58936C120.861 7.58936 120.614 7.6359 120.398 7.729C120.186 7.81787 120.004 7.94059 119.852 8.09717C119.695 8.25374 119.564 8.43571 119.458 8.64307C119.357 8.85042 119.274 9.07048 119.211 9.30322C119.147 9.53597 119.101 9.77507 119.071 10.0205C119.046 10.2617 119.033 10.4966 119.033 10.7251V12.0264C119.033 12.2549 119.046 12.4919 119.071 12.7373C119.101 12.9785 119.147 13.2155 119.211 13.4482C119.274 13.6852 119.357 13.9074 119.458 14.1147C119.56 14.3221 119.689 14.5041 119.846 14.6606C120.002 14.8215 120.186 14.9484 120.398 15.0415C120.61 15.1304 120.857 15.1748 121.141 15.1748C121.45 15.1748 121.716 15.1261 121.94 15.0288C122.169 14.9315 122.361 14.7939 122.518 14.6162C122.675 14.4427 122.799 14.2375 122.893 14.0005C122.986 13.7593 123.051 13.499 123.089 13.2197H124.264ZM127.755 12.5024C127.755 12.0073 127.827 11.5482 127.971 11.125C128.115 10.6976 128.322 10.3273 128.593 10.0142C128.86 9.70101 129.186 9.45557 129.571 9.27783C129.956 9.09587 130.39 9.00488 130.872 9.00488C131.359 9.00488 131.795 9.09587 132.18 9.27783C132.569 9.45557 132.899 9.70101 133.17 10.0142C133.437 10.3273 133.642 10.6976 133.786 11.125C133.93 11.5482 134.001 12.0073 134.001 12.5024V12.6421C134.001 13.1372 133.93 13.5964 133.786 14.0195C133.642 14.4427 133.437 14.8109 133.17 15.124C132.899 15.4372 132.571 15.6826 132.186 15.8604C131.801 16.0381 131.367 16.127 130.885 16.127C130.398 16.127 129.96 16.0381 129.571 15.8604C129.186 15.6826 128.86 15.4372 128.593 15.124C128.322 14.8109 128.115 14.4427 127.971 14.0195C127.827 13.5964 127.755 13.1372 127.755 12.6421V12.5024ZM128.93 12.6421C128.93 12.9806 128.97 13.3044 129.05 13.6133C129.131 13.918 129.253 14.1867 129.418 14.4194C129.579 14.6522 129.782 14.8363 130.028 14.9717C130.273 15.1071 130.559 15.1748 130.885 15.1748C131.206 15.1748 131.488 15.1071 131.729 14.9717C131.974 14.8363 132.18 14.6522 132.345 14.4194C132.506 14.1867 132.626 13.918 132.707 13.6133C132.787 13.3044 132.827 12.9806 132.827 12.6421V12.5024C132.827 12.1681 132.785 11.8486 132.7 11.5439C132.62 11.235 132.499 10.9642 132.338 10.7314C132.173 10.4987 131.968 10.3146 131.723 10.1792C131.481 10.0396 131.198 9.96973 130.872 9.96973C130.546 9.96973 130.263 10.0396 130.021 10.1792C129.78 10.3146 129.579 10.4987 129.418 10.7314C129.253 10.9642 129.131 11.235 129.05 11.5439C128.97 11.8486 128.93 12.1681 128.93 12.5024V12.6421ZM138.433 9.13184L138.464 9.7793C138.604 9.53809 138.786 9.34977 139.01 9.21436C139.239 9.07894 139.514 9.00911 139.835 9.00488C140.017 9.00488 140.18 9.02604 140.324 9.06836C140.472 9.10645 140.601 9.16357 140.711 9.23975C140.792 9.29899 140.864 9.37093 140.927 9.45557C140.995 9.5402 141.052 9.63542 141.099 9.74121C141.158 9.64388 141.228 9.5529 141.308 9.46826C141.389 9.38363 141.475 9.30957 141.568 9.24609C141.687 9.17415 141.818 9.11702 141.962 9.07471C142.11 9.03239 142.271 9.00911 142.444 9.00488C142.681 9.00488 142.895 9.04085 143.085 9.11279C143.276 9.1805 143.437 9.28206 143.568 9.41748C143.712 9.56982 143.822 9.76872 143.898 10.0142C143.974 10.2554 144.012 10.541 144.012 10.8711V16H142.895V10.8584C142.895 10.7145 142.878 10.5876 142.844 10.4775C142.81 10.3675 142.762 10.2765 142.698 10.2046C142.631 10.1369 142.546 10.0861 142.444 10.0522C142.347 10.0184 142.233 10.0015 142.102 10.0015C141.962 10.0015 141.841 10.0205 141.74 10.0586C141.638 10.0967 141.554 10.1475 141.486 10.2109C141.418 10.2786 141.365 10.3569 141.327 10.4458C141.289 10.5304 141.264 10.6257 141.251 10.7314C141.251 10.7526 141.251 10.7738 141.251 10.7949C141.251 10.8118 141.251 10.833 141.251 10.8584V16H140.134V10.8521C140.134 10.7082 140.117 10.5812 140.083 10.4712C140.053 10.3612 140.005 10.2702 139.937 10.1982C139.874 10.1305 139.793 10.0819 139.696 10.0522C139.603 10.0184 139.493 10.0015 139.366 10.0015C139.226 10.0015 139.103 10.0184 138.998 10.0522C138.896 10.0819 138.809 10.1263 138.737 10.1855C138.682 10.2321 138.634 10.285 138.591 10.3442C138.553 10.4035 138.521 10.467 138.496 10.5347V16H137.379V9.13184H138.433ZM147.694 18.6406V9.13184H148.767L148.824 9.88086C148.917 9.76237 149.019 9.65658 149.129 9.56348C149.239 9.46615 149.357 9.38363 149.484 9.31592C149.662 9.21436 149.859 9.13818 150.075 9.0874C150.295 9.03239 150.53 9.00488 150.779 9.00488C151.219 9.00488 151.609 9.09163 151.947 9.26514C152.286 9.43864 152.569 9.67985 152.798 9.98877C153.026 10.2977 153.2 10.668 153.318 11.0996C153.437 11.527 153.496 11.9967 153.496 12.5088V12.6421C153.496 13.133 153.437 13.5921 153.318 14.0195C153.2 14.4427 153.026 14.8109 152.798 15.124C152.569 15.4372 152.286 15.6826 151.947 15.8604C151.613 16.0381 151.23 16.127 150.798 16.127C150.536 16.127 150.291 16.0994 150.062 16.0444C149.838 15.9894 149.635 15.9111 149.453 15.8096C149.343 15.7461 149.239 15.6763 149.142 15.6001C149.044 15.5197 148.953 15.4329 148.869 15.3398V18.6406H147.694ZM152.322 12.5088C152.322 12.1745 152.284 11.8571 152.208 11.5566C152.136 11.252 152.023 10.9832 151.871 10.7505C151.715 10.522 151.518 10.34 151.281 10.2046C151.044 10.0692 150.76 10.0015 150.43 10.0015C150.248 10.0015 150.079 10.0226 149.922 10.0649C149.77 10.1073 149.632 10.1686 149.51 10.249C149.374 10.3294 149.254 10.4289 149.148 10.5474C149.042 10.6659 148.949 10.797 148.869 10.9409V14.248C148.941 14.375 149.023 14.4935 149.116 14.6035C149.209 14.7135 149.315 14.8066 149.434 14.8828C149.569 14.9717 149.719 15.0415 149.884 15.0923C150.054 15.1431 150.24 15.1685 150.443 15.1685C150.769 15.1685 151.05 15.1007 151.287 14.9653C151.524 14.8257 151.719 14.6395 151.871 14.4067C152.023 14.174 152.136 13.9053 152.208 13.6006C152.284 13.2959 152.322 12.9764 152.322 12.6421V12.5088ZM162.021 16C161.975 15.9111 161.937 15.8011 161.907 15.6699C161.882 15.5345 161.863 15.3949 161.85 15.251C161.732 15.3695 161.598 15.4816 161.45 15.5874C161.306 15.6932 161.148 15.7863 160.974 15.8667C160.796 15.9471 160.608 16.0106 160.409 16.0571C160.21 16.1037 159.999 16.127 159.774 16.127C159.41 16.127 159.08 16.0741 158.784 15.9683C158.492 15.8625 158.245 15.7186 158.042 15.5366C157.834 15.3589 157.673 15.1473 157.559 14.9019C157.449 14.6522 157.394 14.3835 157.394 14.0957C157.394 13.7191 157.468 13.389 157.616 13.1055C157.769 12.8219 157.982 12.585 158.257 12.3945C158.532 12.2083 158.862 12.0687 159.248 11.9756C159.637 11.8825 160.071 11.8359 160.549 11.8359H161.831V11.2964C161.831 11.089 161.793 10.9028 161.717 10.7378C161.641 10.5728 161.533 10.431 161.393 10.3125C161.253 10.1982 161.082 10.1094 160.879 10.0459C160.68 9.98242 160.456 9.95068 160.206 9.95068C159.973 9.95068 159.764 9.98031 159.578 10.0396C159.396 10.0988 159.241 10.1771 159.114 10.2744C158.987 10.3717 158.888 10.4881 158.816 10.6235C158.748 10.7547 158.714 10.8923 158.714 11.0361H157.534C157.538 10.7865 157.601 10.541 157.724 10.2998C157.851 10.0586 158.033 9.84066 158.27 9.646C158.503 9.45557 158.786 9.30111 159.121 9.18262C159.459 9.06413 159.842 9.00488 160.27 9.00488C160.659 9.00488 161.021 9.05355 161.355 9.15088C161.689 9.24398 161.979 9.38574 162.225 9.57617C162.466 9.77083 162.656 10.012 162.796 10.2998C162.936 10.5876 163.005 10.924 163.005 11.3091V14.502C163.005 14.7305 163.027 14.9738 163.069 15.2319C163.111 15.4858 163.17 15.708 163.247 15.8984V16H162.021ZM159.946 15.105C160.174 15.105 160.388 15.0754 160.587 15.0161C160.786 14.9569 160.968 14.8786 161.133 14.7812C161.294 14.6839 161.433 14.5739 161.552 14.4512C161.67 14.3242 161.763 14.193 161.831 14.0576V12.6675H160.739C160.333 12.6675 159.978 12.7035 159.673 12.7754C159.372 12.8431 159.133 12.9489 158.956 13.0928C158.829 13.1943 158.731 13.3149 158.664 13.4546C158.6 13.5942 158.568 13.7529 158.568 13.9307C158.568 14.0999 158.596 14.2565 158.651 14.4004C158.71 14.5443 158.797 14.667 158.911 14.7686C159.025 14.8743 159.169 14.9569 159.343 15.0161C159.516 15.0754 159.717 15.105 159.946 15.105ZM170.242 15.1748C170.454 15.1748 170.659 15.141 170.858 15.0732C171.061 15.0055 171.241 14.9103 171.397 14.7876C171.554 14.6691 171.679 14.5295 171.772 14.3687C171.869 14.2036 171.92 14.0259 171.924 13.8354H173.035C173.031 14.1401 172.951 14.4321 172.794 14.7114C172.642 14.9865 172.436 15.2277 172.178 15.4351C171.92 15.6466 171.624 15.8159 171.29 15.9429C170.955 16.0656 170.606 16.127 170.242 16.127C169.722 16.127 169.267 16.0339 168.877 15.8477C168.488 15.6615 168.164 15.4097 167.906 15.0923C167.644 14.7791 167.447 14.4173 167.316 14.0068C167.185 13.5921 167.119 13.1562 167.119 12.6992V12.4326C167.119 11.9798 167.185 11.5461 167.316 11.1313C167.447 10.7166 167.644 10.3506 167.906 10.0332C168.164 9.72005 168.488 9.47038 168.877 9.28418C169.267 9.09798 169.722 9.00488 170.242 9.00488C170.648 9.00488 171.021 9.07048 171.359 9.20166C171.702 9.32861 171.998 9.50212 172.248 9.72217C172.493 9.94645 172.686 10.2109 172.826 10.5156C172.965 10.8203 173.035 11.1462 173.035 11.4932H171.924C171.92 11.2858 171.874 11.0911 171.785 10.9092C171.7 10.723 171.584 10.5601 171.436 10.4204C171.287 10.2808 171.11 10.1707 170.902 10.0903C170.699 10.0099 170.479 9.96973 170.242 9.96973C169.878 9.96973 169.571 10.0438 169.322 10.1919C169.076 10.3358 168.877 10.5241 168.725 10.7568C168.573 10.9938 168.463 11.2583 168.395 11.5503C168.332 11.8423 168.3 12.1364 168.3 12.4326V12.6992C168.3 12.9997 168.332 13.298 168.395 13.5942C168.463 13.8862 168.573 14.1486 168.725 14.3813C168.873 14.6183 169.07 14.8109 169.315 14.959C169.565 15.1029 169.874 15.1748 170.242 15.1748ZM179.904 7.46875V9.13184H182.519V10.0396H179.904V13.772C179.904 14.0386 179.938 14.2586 180.005 14.4321C180.073 14.6056 180.166 14.7432 180.285 14.8447C180.403 14.9505 180.539 15.0246 180.691 15.0669C180.847 15.1092 181.013 15.1304 181.186 15.1304C181.313 15.1304 181.444 15.124 181.58 15.1113C181.715 15.0944 181.848 15.0754 181.979 15.0542C182.106 15.033 182.225 15.0119 182.335 14.9907C182.449 14.9653 182.542 14.9442 182.614 14.9272L182.779 15.7588C182.682 15.818 182.563 15.8709 182.424 15.9175C182.284 15.9598 182.132 15.9958 181.967 16.0254C181.802 16.0592 181.626 16.0846 181.44 16.1016C181.258 16.1185 181.076 16.127 180.894 16.127C180.589 16.127 180.304 16.0846 180.037 16C179.775 15.9111 179.546 15.7715 179.352 15.5811C179.157 15.3949 179.002 15.1536 178.888 14.8574C178.778 14.557 178.723 14.1951 178.723 13.772V10.0396H176.92V9.13184H178.723V7.46875H179.904Z" fill="#8C8A6E"/>
</svg>
