<svg width="200" height="22" viewBox="0 0 200 22" fill="none" xmlns="http://www.w3.org/2000/svg">
<rect x="1" y="1" width="198" height="20" rx="3" fill="#1D1D1D"/>
<rect x="1" y="1" width="198" height="20" rx="3" stroke="#6A6853" stroke-width="2"/>
<path opacity="0.65" d="M23.0669 16H21.8735L18.2871 9.09375L18.2681 16H17.0811V6.75781H18.2744L21.8608 13.6514L21.8799 6.75781H23.0669V16ZM31.5986 16C31.5521 15.9111 31.514 15.8011 31.4844 15.6699C31.459 15.5345 31.4399 15.3949 31.4272 15.251C31.3088 15.3695 31.1755 15.4816 31.0273 15.5874C30.8835 15.6932 30.7248 15.7863 30.5513 15.8667C30.3735 15.9471 30.1852 16.0106 29.9863 16.0571C29.7874 16.1037 29.5758 16.127 29.3516 16.127C28.9876 16.127 28.6576 16.0741 28.3613 15.9683C28.0693 15.8625 27.8218 15.7186 27.6187 15.5366C27.4113 15.3589 27.2505 15.1473 27.1362 14.9019C27.0262 14.6522 26.9712 14.3835 26.9712 14.0957C26.9712 13.7191 27.0452 13.389 27.1934 13.1055C27.3457 12.8219 27.5594 12.585 27.8345 12.3945C28.1095 12.2083 28.4396 12.0687 28.8247 11.9756C29.214 11.8825 29.6478 11.8359 30.126 11.8359H31.4082V11.2964C31.4082 11.089 31.3701 10.9028 31.2939 10.7378C31.2178 10.5728 31.1099 10.431 30.9702 10.3125C30.8306 10.1982 30.6592 10.1094 30.4561 10.0459C30.2572 9.98242 30.0329 9.95068 29.7832 9.95068C29.5505 9.95068 29.341 9.98031 29.1548 10.0396C28.9728 10.0988 28.8184 10.1771 28.6914 10.2744C28.5645 10.3717 28.465 10.4881 28.3931 10.6235C28.3254 10.7547 28.2915 10.8923 28.2915 11.0361H27.1108C27.1151 10.7865 27.1785 10.541 27.3013 10.2998C27.4282 10.0586 27.6102 9.84066 27.8472 9.646C28.0799 9.45557 28.3634 9.30111 28.6978 9.18262C29.0363 9.06413 29.4193 9.00488 29.8467 9.00488C30.236 9.00488 30.5978 9.05355 30.9321 9.15088C31.2664 9.24398 31.5563 9.38574 31.8018 9.57617C32.043 9.77083 32.2334 10.012 32.373 10.2998C32.5127 10.5876 32.5825 10.924 32.5825 11.3091V14.502C32.5825 14.7305 32.6037 14.9738 32.646 15.2319C32.6883 15.4858 32.7476 15.708 32.8237 15.8984V16H31.5986ZM29.5229 15.105C29.7515 15.105 29.9652 15.0754 30.1641 15.0161C30.363 14.9569 30.5449 14.8786 30.71 14.7812C30.8708 14.6839 31.0104 14.5739 31.1289 14.4512C31.2474 14.3242 31.3405 14.193 31.4082 14.0576V12.6675H30.3164C29.9102 12.6675 29.5547 12.7035 29.25 12.7754C28.9495 12.8431 28.7104 12.9489 28.5327 13.0928C28.4058 13.1943 28.3084 13.3149 28.2407 13.4546C28.1772 13.5942 28.1455 13.7529 28.1455 13.9307C28.1455 14.0999 28.173 14.2565 28.228 14.4004C28.2873 14.5443 28.374 14.667 28.4883 14.7686C28.6025 14.8743 28.7464 14.9569 28.9199 15.0161C29.0934 15.0754 29.2944 15.105 29.5229 15.105ZM39.6733 7.46875V9.13184H42.2886V10.0396H39.6733V13.772C39.6733 14.0386 39.7072 14.2586 39.7749 14.4321C39.8426 14.6056 39.9357 14.7432 40.0542 14.8447C40.1727 14.9505 40.3081 15.0246 40.4604 15.0669C40.617 15.1092 40.7821 15.1304 40.9556 15.1304C41.0825 15.1304 41.2137 15.124 41.3491 15.1113C41.4845 15.0944 41.6178 15.0754 41.749 15.0542C41.876 15.033 41.9945 15.0119 42.1045 14.9907C42.2188 14.9653 42.3118 14.9442 42.3838 14.9272L42.5488 15.7588C42.4515 15.818 42.333 15.8709 42.1934 15.9175C42.0537 15.9598 41.9014 15.9958 41.7363 16.0254C41.5713 16.0592 41.3957 16.0846 41.2095 16.1016C41.0275 16.1185 40.8455 16.127 40.6636 16.127C40.3589 16.127 40.0732 16.0846 39.8066 16C39.5443 15.9111 39.3158 15.7715 39.1211 15.5811C38.9264 15.3949 38.772 15.1536 38.6577 14.8574C38.5477 14.557 38.4927 14.1951 38.4927 13.772V10.0396H36.6899V9.13184H38.4927V7.46875H39.6733ZM51.2266 16L51.1567 15.0542C50.9282 15.3927 50.6426 15.6572 50.2998 15.8477C49.957 16.0339 49.5614 16.127 49.1128 16.127C48.7531 16.127 48.4272 16.0719 48.1353 15.9619C47.8433 15.8477 47.5936 15.672 47.3862 15.4351C47.1789 15.1981 47.0181 14.8976 46.9038 14.5337C46.7938 14.1655 46.7388 13.7254 46.7388 13.2134V9.13184H47.9131V13.2261C47.9131 13.5985 47.9427 13.9074 48.002 14.1528C48.0612 14.3983 48.1501 14.5929 48.2686 14.7368C48.387 14.8849 48.5309 14.9886 48.7002 15.0479C48.8737 15.1071 49.0726 15.1367 49.2969 15.1367C49.5592 15.1367 49.7941 15.1071 50.0015 15.0479C50.2088 14.9844 50.3887 14.8976 50.541 14.7876C50.668 14.6987 50.778 14.5929 50.8711 14.4702C50.9684 14.3433 51.0488 14.2057 51.1123 14.0576V9.13184H52.293V16H51.2266ZM61.0088 9.00488C61.2246 9.00488 61.4489 9.01969 61.6816 9.04932C61.9186 9.07894 62.0964 9.11914 62.2148 9.16992L62.0562 10.3188C61.8276 10.2681 61.6097 10.2321 61.4023 10.2109C61.1992 10.1855 60.9855 10.1729 60.7612 10.1729C60.4735 10.1729 60.2132 10.2088 59.9805 10.2808C59.7477 10.3485 59.5446 10.45 59.3711 10.5854C59.2145 10.7039 59.077 10.8499 58.9585 11.0234C58.8442 11.1927 58.749 11.3831 58.6729 11.5947V16H57.4922V9.13184H58.6094L58.6602 10.0522L58.6665 10.2236C58.9458 9.84701 59.2801 9.55078 59.6694 9.33496C60.063 9.11491 60.5094 9.00488 61.0088 9.00488ZM70.8291 16C70.7826 15.9111 70.7445 15.8011 70.7148 15.6699C70.6895 15.5345 70.6704 15.3949 70.6577 15.251C70.5392 15.3695 70.4059 15.4816 70.2578 15.5874C70.1139 15.6932 69.9552 15.7863 69.7817 15.8667C69.604 15.9471 69.4157 16.0106 69.2168 16.0571C69.0179 16.1037 68.8063 16.127 68.582 16.127C68.2181 16.127 67.888 16.0741 67.5918 15.9683C67.2998 15.8625 67.0522 15.7186 66.8491 15.5366C66.6418 15.3589 66.481 15.1473 66.3667 14.9019C66.2567 14.6522 66.2017 14.3835 66.2017 14.0957C66.2017 13.7191 66.2757 13.389 66.4238 13.1055C66.5762 12.8219 66.7899 12.585 67.0649 12.3945C67.34 12.2083 67.6701 12.0687 68.0552 11.9756C68.4445 11.8825 68.8783 11.8359 69.3564 11.8359H70.6387V11.2964C70.6387 11.089 70.6006 10.9028 70.5244 10.7378C70.4482 10.5728 70.3403 10.431 70.2007 10.3125C70.061 10.1982 69.8896 10.1094 69.6865 10.0459C69.4876 9.98242 69.2633 9.95068 69.0137 9.95068C68.7809 9.95068 68.5715 9.98031 68.3853 10.0396C68.2033 10.0988 68.0488 10.1771 67.9219 10.2744C67.7949 10.3717 67.6955 10.4881 67.6235 10.6235C67.5558 10.7547 67.522 10.8923 67.522 11.0361H66.3413C66.3455 10.7865 66.409 10.541 66.5317 10.2998C66.6587 10.0586 66.8407 9.84066 67.0776 9.646C67.3104 9.45557 67.5939 9.30111 67.9282 9.18262C68.2668 9.06413 68.6497 9.00488 69.0771 9.00488C69.4665 9.00488 69.8283 9.05355 70.1626 9.15088C70.4969 9.24398 70.7868 9.38574 71.0322 9.57617C71.2734 9.77083 71.4639 10.012 71.6035 10.2998C71.7432 10.5876 71.813 10.924 71.813 11.3091V14.502C71.813 14.7305 71.8341 14.9738 71.8765 15.2319C71.9188 15.4858 71.978 15.708 72.0542 15.8984V16H70.8291ZM68.7534 15.105C68.9819 15.105 69.1956 15.0754 69.3945 15.0161C69.5934 14.9569 69.7754 14.8786 69.9404 14.7812C70.1012 14.6839 70.2409 14.5739 70.3594 14.4512C70.4779 14.3242 70.571 14.193 70.6387 14.0576V12.6675H69.5469C69.1406 12.6675 68.7852 12.7035 68.4805 12.7754C68.18 12.8431 67.9409 12.9489 67.7632 13.0928C67.6362 13.1943 67.5389 13.3149 67.4712 13.4546C67.4077 13.5942 67.376 13.7529 67.376 13.9307C67.376 14.0999 67.4035 14.2565 67.4585 14.4004C67.5177 14.5443 67.6045 14.667 67.7188 14.7686C67.833 14.8743 67.9769 14.9569 68.1504 15.0161C68.3239 15.0754 68.5249 15.105 68.7534 15.105ZM76.3076 6.25H79.8179V14.9844H82.0586V16H76.3076V14.9844H78.6436V7.27197H76.3076V6.25Z" fill="#8C8A6E"/>
<rect x="99.5" y="2.5" width="98" height="17" rx="1.5" fill="#6A6853"/>
<rect x="99.5" y="2.5" width="98" height="17" rx="1.5" stroke="#6A6853"/>
<path d="M122.264 13.2197C122.209 13.6471 122.099 14.0407 121.934 14.4004C121.769 14.7559 121.555 15.0605 121.292 15.3145C121.026 15.5726 120.711 15.7736 120.347 15.9175C119.987 16.0571 119.585 16.127 119.141 16.127C118.76 16.127 118.413 16.0741 118.1 15.9683C117.791 15.8582 117.516 15.708 117.274 15.5176C117.029 15.3271 116.817 15.1029 116.64 14.8447C116.466 14.5866 116.322 14.3052 116.208 14.0005C116.09 13.6958 116.001 13.3763 115.941 13.042C115.886 12.7077 115.857 12.3691 115.853 12.0264V10.7378C115.857 10.395 115.886 10.0565 115.941 9.72217C116.001 9.38786 116.09 9.06836 116.208 8.76367C116.322 8.45898 116.466 8.17757 116.64 7.91943C116.817 7.65706 117.029 7.43066 117.274 7.24023C117.516 7.0498 117.791 6.90169 118.1 6.7959C118.409 6.68587 118.756 6.63086 119.141 6.63086C119.602 6.63086 120.014 6.7028 120.378 6.84668C120.742 6.98633 121.056 7.18522 121.318 7.44336C121.58 7.70573 121.79 8.01888 121.946 8.38281C122.107 8.74674 122.213 9.14876 122.264 9.58887H121.089C121.051 9.30957 120.986 9.04932 120.893 8.80811C120.799 8.56689 120.675 8.35531 120.518 8.17334C120.361 7.99137 120.169 7.84961 119.94 7.74805C119.716 7.64225 119.45 7.58936 119.141 7.58936C118.861 7.58936 118.614 7.6359 118.398 7.729C118.186 7.81787 118.004 7.94059 117.852 8.09717C117.695 8.25374 117.564 8.43571 117.458 8.64307C117.357 8.85042 117.274 9.07048 117.211 9.30322C117.147 9.53597 117.101 9.77507 117.071 10.0205C117.046 10.2617 117.033 10.4966 117.033 10.7251V12.0264C117.033 12.2549 117.046 12.4919 117.071 12.7373C117.101 12.9785 117.147 13.2155 117.211 13.4482C117.274 13.6852 117.357 13.9074 117.458 14.1147C117.56 14.3221 117.689 14.5041 117.846 14.6606C118.002 14.8215 118.186 14.9484 118.398 15.0415C118.61 15.1304 118.857 15.1748 119.141 15.1748C119.45 15.1748 119.716 15.1261 119.94 15.0288C120.169 14.9315 120.361 14.7939 120.518 14.6162C120.675 14.4427 120.799 14.2375 120.893 14.0005C120.986 13.7593 121.051 13.499 121.089 13.2197H122.264ZM125.755 12.5024C125.755 12.0073 125.827 11.5482 125.971 11.125C126.115 10.6976 126.322 10.3273 126.593 10.0142C126.86 9.70101 127.186 9.45557 127.571 9.27783C127.956 9.09587 128.39 9.00488 128.872 9.00488C129.359 9.00488 129.795 9.09587 130.18 9.27783C130.569 9.45557 130.899 9.70101 131.17 10.0142C131.437 10.3273 131.642 10.6976 131.786 11.125C131.93 11.5482 132.001 12.0073 132.001 12.5024V12.6421C132.001 13.1372 131.93 13.5964 131.786 14.0195C131.642 14.4427 131.437 14.8109 131.17 15.124C130.899 15.4372 130.571 15.6826 130.186 15.8604C129.801 16.0381 129.367 16.127 128.885 16.127C128.398 16.127 127.96 16.0381 127.571 15.8604C127.186 15.6826 126.86 15.4372 126.593 15.124C126.322 14.8109 126.115 14.4427 125.971 14.0195C125.827 13.5964 125.755 13.1372 125.755 12.6421V12.5024ZM126.93 12.6421C126.93 12.9806 126.97 13.3044 127.05 13.6133C127.131 13.918 127.253 14.1867 127.418 14.4194C127.579 14.6522 127.782 14.8363 128.028 14.9717C128.273 15.1071 128.559 15.1748 128.885 15.1748C129.206 15.1748 129.488 15.1071 129.729 14.9717C129.974 14.8363 130.18 14.6522 130.345 14.4194C130.506 14.1867 130.626 13.918 130.707 13.6133C130.787 13.3044 130.827 12.9806 130.827 12.6421V12.5024C130.827 12.1681 130.785 11.8486 130.7 11.5439C130.62 11.235 130.499 10.9642 130.338 10.7314C130.173 10.4987 129.968 10.3146 129.723 10.1792C129.481 10.0396 129.198 9.96973 128.872 9.96973C128.546 9.96973 128.263 10.0396 128.021 10.1792C127.78 10.3146 127.579 10.4987 127.418 10.7314C127.253 10.9642 127.131 11.235 127.05 11.5439C126.97 11.8486 126.93 12.1681 126.93 12.5024V12.6421ZM136.433 9.13184L136.464 9.7793C136.604 9.53809 136.786 9.34977 137.01 9.21436C137.239 9.07894 137.514 9.00911 137.835 9.00488C138.017 9.00488 138.18 9.02604 138.324 9.06836C138.472 9.10645 138.601 9.16357 138.711 9.23975C138.792 9.29899 138.864 9.37093 138.927 9.45557C138.995 9.5402 139.052 9.63542 139.099 9.74121C139.158 9.64388 139.228 9.5529 139.308 9.46826C139.389 9.38363 139.475 9.30957 139.568 9.24609C139.687 9.17415 139.818 9.11702 139.962 9.07471C140.11 9.03239 140.271 9.00911 140.444 9.00488C140.681 9.00488 140.895 9.04085 141.085 9.11279C141.276 9.1805 141.437 9.28206 141.568 9.41748C141.712 9.56982 141.822 9.76872 141.898 10.0142C141.974 10.2554 142.012 10.541 142.012 10.8711V16H140.895V10.8584C140.895 10.7145 140.878 10.5876 140.844 10.4775C140.81 10.3675 140.762 10.2765 140.698 10.2046C140.631 10.1369 140.546 10.0861 140.444 10.0522C140.347 10.0184 140.233 10.0015 140.102 10.0015C139.962 10.0015 139.841 10.0205 139.74 10.0586C139.638 10.0967 139.554 10.1475 139.486 10.2109C139.418 10.2786 139.365 10.3569 139.327 10.4458C139.289 10.5304 139.264 10.6257 139.251 10.7314C139.251 10.7526 139.251 10.7738 139.251 10.7949C139.251 10.8118 139.251 10.833 139.251 10.8584V16H138.134V10.8521C138.134 10.7082 138.117 10.5812 138.083 10.4712C138.053 10.3612 138.005 10.2702 137.937 10.1982C137.874 10.1305 137.793 10.0819 137.696 10.0522C137.603 10.0184 137.493 10.0015 137.366 10.0015C137.226 10.0015 137.103 10.0184 136.998 10.0522C136.896 10.0819 136.809 10.1263 136.737 10.1855C136.682 10.2321 136.634 10.285 136.591 10.3442C136.553 10.4035 136.521 10.467 136.496 10.5347V16H135.379V9.13184H136.433ZM145.694 18.6406V9.13184H146.767L146.824 9.88086C146.917 9.76237 147.019 9.65658 147.129 9.56348C147.239 9.46615 147.357 9.38363 147.484 9.31592C147.662 9.21436 147.859 9.13818 148.075 9.0874C148.295 9.03239 148.53 9.00488 148.779 9.00488C149.219 9.00488 149.609 9.09163 149.947 9.26514C150.286 9.43864 150.569 9.67985 150.798 9.98877C151.026 10.2977 151.2 10.668 151.318 11.0996C151.437 11.527 151.496 11.9967 151.496 12.5088V12.6421C151.496 13.133 151.437 13.5921 151.318 14.0195C151.2 14.4427 151.026 14.8109 150.798 15.124C150.569 15.4372 150.286 15.6826 149.947 15.8604C149.613 16.0381 149.23 16.127 148.798 16.127C148.536 16.127 148.291 16.0994 148.062 16.0444C147.838 15.9894 147.635 15.9111 147.453 15.8096C147.343 15.7461 147.239 15.6763 147.142 15.6001C147.044 15.5197 146.953 15.4329 146.869 15.3398V18.6406H145.694ZM150.322 12.5088C150.322 12.1745 150.284 11.8571 150.208 11.5566C150.136 11.252 150.023 10.9832 149.871 10.7505C149.715 10.522 149.518 10.34 149.281 10.2046C149.044 10.0692 148.76 10.0015 148.43 10.0015C148.248 10.0015 148.079 10.0226 147.922 10.0649C147.77 10.1073 147.632 10.1686 147.51 10.249C147.374 10.3294 147.254 10.4289 147.148 10.5474C147.042 10.6659 146.949 10.797 146.869 10.9409V14.248C146.941 14.375 147.023 14.4935 147.116 14.6035C147.209 14.7135 147.315 14.8066 147.434 14.8828C147.569 14.9717 147.719 15.0415 147.884 15.0923C148.054 15.1431 148.24 15.1685 148.443 15.1685C148.769 15.1685 149.05 15.1007 149.287 14.9653C149.524 14.8257 149.719 14.6395 149.871 14.4067C150.023 14.174 150.136 13.9053 150.208 13.6006C150.284 13.2959 150.322 12.9764 150.322 12.6421V12.5088ZM160.021 16C159.975 15.9111 159.937 15.8011 159.907 15.6699C159.882 15.5345 159.863 15.3949 159.85 15.251C159.732 15.3695 159.598 15.4816 159.45 15.5874C159.306 15.6932 159.148 15.7863 158.974 15.8667C158.796 15.9471 158.608 16.0106 158.409 16.0571C158.21 16.1037 157.999 16.127 157.774 16.127C157.41 16.127 157.08 16.0741 156.784 15.9683C156.492 15.8625 156.245 15.7186 156.042 15.5366C155.834 15.3589 155.673 15.1473 155.559 14.9019C155.449 14.6522 155.394 14.3835 155.394 14.0957C155.394 13.7191 155.468 13.389 155.616 13.1055C155.769 12.8219 155.982 12.585 156.257 12.3945C156.532 12.2083 156.862 12.0687 157.248 11.9756C157.637 11.8825 158.071 11.8359 158.549 11.8359H159.831V11.2964C159.831 11.089 159.793 10.9028 159.717 10.7378C159.641 10.5728 159.533 10.431 159.393 10.3125C159.253 10.1982 159.082 10.1094 158.879 10.0459C158.68 9.98242 158.456 9.95068 158.206 9.95068C157.973 9.95068 157.764 9.98031 157.578 10.0396C157.396 10.0988 157.241 10.1771 157.114 10.2744C156.987 10.3717 156.888 10.4881 156.816 10.6235C156.748 10.7547 156.714 10.8923 156.714 11.0361H155.534C155.538 10.7865 155.601 10.541 155.724 10.2998C155.851 10.0586 156.033 9.84066 156.27 9.646C156.503 9.45557 156.786 9.30111 157.121 9.18262C157.459 9.06413 157.842 9.00488 158.27 9.00488C158.659 9.00488 159.021 9.05355 159.355 9.15088C159.689 9.24398 159.979 9.38574 160.225 9.57617C160.466 9.77083 160.656 10.012 160.796 10.2998C160.936 10.5876 161.005 10.924 161.005 11.3091V14.502C161.005 14.7305 161.027 14.9738 161.069 15.2319C161.111 15.4858 161.17 15.708 161.247 15.8984V16H160.021ZM157.946 15.105C158.174 15.105 158.388 15.0754 158.587 15.0161C158.786 14.9569 158.968 14.8786 159.133 14.7812C159.294 14.6839 159.433 14.5739 159.552 14.4512C159.67 14.3242 159.763 14.193 159.831 14.0576V12.6675H158.739C158.333 12.6675 157.978 12.7035 157.673 12.7754C157.372 12.8431 157.133 12.9489 156.956 13.0928C156.829 13.1943 156.731 13.3149 156.664 13.4546C156.6 13.5942 156.568 13.7529 156.568 13.9307C156.568 14.0999 156.596 14.2565 156.651 14.4004C156.71 14.5443 156.797 14.667 156.911 14.7686C157.025 14.8743 157.169 14.9569 157.343 15.0161C157.516 15.0754 157.717 15.105 157.946 15.105ZM168.242 15.1748C168.454 15.1748 168.659 15.141 168.858 15.0732C169.061 15.0055 169.241 14.9103 169.397 14.7876C169.554 14.6691 169.679 14.5295 169.772 14.3687C169.869 14.2036 169.92 14.0259 169.924 13.8354H171.035C171.031 14.1401 170.951 14.4321 170.794 14.7114C170.642 14.9865 170.436 15.2277 170.178 15.4351C169.92 15.6466 169.624 15.8159 169.29 15.9429C168.955 16.0656 168.606 16.127 168.242 16.127C167.722 16.127 167.267 16.0339 166.877 15.8477C166.488 15.6615 166.164 15.4097 165.906 15.0923C165.644 14.7791 165.447 14.4173 165.316 14.0068C165.185 13.5921 165.119 13.1562 165.119 12.6992V12.4326C165.119 11.9798 165.185 11.5461 165.316 11.1313C165.447 10.7166 165.644 10.3506 165.906 10.0332C166.164 9.72005 166.488 9.47038 166.877 9.28418C167.267 9.09798 167.722 9.00488 168.242 9.00488C168.648 9.00488 169.021 9.07048 169.359 9.20166C169.702 9.32861 169.998 9.50212 170.248 9.72217C170.493 9.94645 170.686 10.2109 170.826 10.5156C170.965 10.8203 171.035 11.1462 171.035 11.4932H169.924C169.92 11.2858 169.874 11.0911 169.785 10.9092C169.7 10.723 169.584 10.5601 169.436 10.4204C169.287 10.2808 169.11 10.1707 168.902 10.0903C168.699 10.0099 168.479 9.96973 168.242 9.96973C167.878 9.96973 167.571 10.0438 167.322 10.1919C167.076 10.3358 166.877 10.5241 166.725 10.7568C166.573 10.9938 166.463 11.2583 166.395 11.5503C166.332 11.8423 166.3 12.1364 166.3 12.4326V12.6992C166.3 12.9997 166.332 13.298 166.395 13.5942C166.463 13.8862 166.573 14.1486 166.725 14.3813C166.873 14.6183 167.07 14.8109 167.315 14.959C167.565 15.1029 167.874 15.1748 168.242 15.1748ZM177.904 7.46875V9.13184H180.519V10.0396H177.904V13.772C177.904 14.0386 177.938 14.2586 178.005 14.4321C178.073 14.6056 178.166 14.7432 178.285 14.8447C178.403 14.9505 178.539 15.0246 178.691 15.0669C178.847 15.1092 179.013 15.1304 179.186 15.1304C179.313 15.1304 179.444 15.124 179.58 15.1113C179.715 15.0944 179.848 15.0754 179.979 15.0542C180.106 15.033 180.225 15.0119 180.335 14.9907C180.449 14.9653 180.542 14.9442 180.614 14.9272L180.779 15.7588C180.682 15.818 180.563 15.8709 180.424 15.9175C180.284 15.9598 180.132 15.9958 179.967 16.0254C179.802 16.0592 179.626 16.0846 179.44 16.1016C179.258 16.1185 179.076 16.127 178.894 16.127C178.589 16.127 178.304 16.0846 178.037 16C177.775 15.9111 177.546 15.7715 177.352 15.5811C177.157 15.3949 177.002 15.1536 176.888 14.8574C176.778 14.557 176.723 14.1951 176.723 13.772V10.0396H174.92V9.13184H176.723V7.46875H177.904Z" fill="#CDCDCD"/>
</svg>
